<svg xmlns="http://www.w3.org/2000/svg" width="47.873" height="55.076" viewBox="0 0 47.873 55.076">
  <g id="Layer_1" data-name="Layer 1" transform="translate(1.023 0.05)">
    <g id="Group_399" data-name="Group 399">
      <g id="Group_397" data-name="Group 397">
        <path id="Path_702" data-name="Path 702" d="M17.6,47.7H32.73a4.3,4.3,0,0,0,3-1.21l9.49-7.97a2.006,2.006,0,0,0-.66-3.32c-1.17-.45-2.39-.11-4.02,1.01l-7.81,5.15" fill="none" stroke="#fff" stroke-linecap="round" stroke-linejoin="round" stroke-width="2"/>
        <path id="Path_703" data-name="Path 703" d="M20.32,41.95l7.91.05a2.219,2.219,0,0,0,1.84-2.1h0a2.231,2.231,0,0,0-2.09-2.32c-4.23,0-7.21-1.61-10.42-2.42-5.74-.9-8.48,2.28-9.16,3.26" fill="none" stroke="#fff" stroke-linecap="round" stroke-linejoin="round" stroke-width="2"/>
        <rect id="Rectangle_472" data-name="Rectangle 472" width="6.88" height="13.51" rx="1.47" transform="translate(0.391 44.058) rotate(-45)" fill="none" stroke="#fff" stroke-linecap="round" stroke-linejoin="round" stroke-width="2"/>
      </g>
      <g id="Group_398" data-name="Group 398">
        <path id="Path_704" data-name="Path 704" d="M15.82,30.9a7.887,7.887,0,0,1,.52-2.45,6.97,6.97,0,0,1,.37-.78,7.77,7.77,0,0,1,3.42-3.29l.33-.15,3.32-1.2,4.98,4.98,4.98-4.98,3.32,1.2.33.15a7.822,7.822,0,0,1,3.42,3.29,7.021,7.021,0,0,1,.47,1.05,8.116,8.116,0,0,1,.43,2.07" fill="none" stroke="#fff" stroke-linecap="round" stroke-linejoin="round" stroke-width="2"/>
        <path id="Path_705" data-name="Path 705" d="M22.99,10.48S28.84,9.29,30.8,6.8c0,0,2.26,1.68,3.79,2.79" fill="none" stroke="#fff" stroke-linecap="round" stroke-linejoin="round" stroke-width="2"/>
        <path id="Path_706" data-name="Path 706" d="M37.58,8.2a12.734,12.734,0,0,0-.96-2.36,9.23,9.23,0,0,0-3.76-3.88,8.6,8.6,0,0,0-7.43-.23,9.357,9.357,0,0,0-4.48,3.86,10.235,10.235,0,0,0-1.11,2.7,2.675,2.675,0,0,0,.83,2.66,2.543,2.543,0,0,1,1.01,1.82h0c.73,4.01,3.63,8.37,7.09,8.37s6.32-4.3,7.07-8.29a4.64,4.64,0,0,1,.2-.73,3.96,3.96,0,0,1,.99-1.41,2,2,0,0,0,.19-.22,2.714,2.714,0,0,0,.37-2.3Z" fill="none" stroke="#fff" stroke-linecap="round" stroke-linejoin="round" stroke-width="2"/>
      </g>
    </g>
  </g>
</svg>
