<svg id="Layer_1" data-name="Layer 1" xmlns="http://www.w3.org/2000/svg" width="53.712" height="52" viewBox="0 0 53.712 52">
  <g id="Group_396" data-name="Group 396">
    <path id="Path_699" data-name="Path 699" d="M40.89,37.47V48.18A2.823,2.823,0,0,1,38.07,51H3.82A2.823,2.823,0,0,1,1,48.18V17.12A5.261,5.261,0,0,1,2.54,13.4L14.13,1.82A2.8,2.8,0,0,1,16.12,1H38.08A2.823,2.823,0,0,1,40.9,3.82v5.9" fill="none" stroke="#fff" stroke-linecap="round" stroke-linejoin="round" stroke-width="2"/>
    <path id="Path_700" data-name="Path 700" d="M8.06,14.95h6.89V8.06" fill="none" stroke="#fff" stroke-linecap="round" stroke-linejoin="round" stroke-width="2"/>
    <line id="Line_5" data-name="Line 5" x1="14.89" transform="translate(8.73 38.84)" fill="none" stroke="#fff" stroke-linecap="round" stroke-linejoin="round" stroke-width="2"/>
    <line id="Line_6" data-name="Line 6" x1="16.87" transform="translate(8.73 30.31)" fill="none" stroke="#fff" stroke-linecap="round" stroke-linejoin="round" stroke-width="2"/>
    <line id="Line_7" data-name="Line 7" x1="21.28" transform="translate(8.73 21.78)" fill="none" stroke="#fff" stroke-linecap="round" stroke-linejoin="round" stroke-width="2"/>
    <path id="Path_701" data-name="Path 701" d="M51.99,15.57,35.18,35.75l-6.73,3.31,2.04-7.22L47.3,11.66a3.06,3.06,0,0,1,4.31-.39h0A3.06,3.06,0,0,1,52,15.58Z" fill="none" stroke="#fff" stroke-linecap="round" stroke-linejoin="round" stroke-width="2"/>
  </g>
</svg>
