<svg id="Layer_1" data-name="Layer 1" xmlns="http://www.w3.org/2000/svg" width="49.64" height="52" viewBox="0 0 49.64 52">
  <g id="Group_404" data-name="Group 404">
    <path id="Path_713" data-name="Path 713" d="M48.64,10.91V45.34A5.681,5.681,0,0,1,42.98,51H6.66A5.681,5.681,0,0,1,1,45.34V10.91A5.681,5.681,0,0,1,6.66,5.25H9.81" fill="none" stroke="#fff" stroke-linecap="round" stroke-linejoin="round" stroke-width="2"/>
    <path id="Path_714" data-name="Path 714" d="M1,22.23a5.681,5.681,0,0,1,5.66-5.66H17.9" fill="none" stroke="#fff" stroke-linecap="round" stroke-miterlimit="10" stroke-width="2"/>
    <path id="Path_715" data-name="Path 715" d="M35.9,26.47h7.08a5.681,5.681,0,0,1,5.66,5.66v5.72" fill="none" stroke="#fff" stroke-linecap="round" stroke-miterlimit="10" stroke-width="2"/>
    <path id="Path_716" data-name="Path 716" d="M28.12,11.38h5.72a3.965,3.965,0,0,1,3.95,3.95v4.6" fill="none" stroke="#fff" stroke-linecap="round" stroke-miterlimit="10" stroke-width="2"/>
    <line id="Line_19" data-name="Line 19" x2="2.39" transform="translate(21.66 11.38)" fill="none" stroke="#fff" stroke-linecap="round" stroke-miterlimit="10" stroke-width="2"/>
    <path id="Path_717" data-name="Path 717" d="M7.13,15.33a3.965,3.965,0,0,1,3.95-3.95h6.63" fill="none" stroke="#fff" stroke-linecap="round" stroke-miterlimit="10" stroke-width="2"/>
    <path id="Path_718" data-name="Path 718" d="M12.79,8.24v-3A4.255,4.255,0,0,1,17.03,1H39.21a4.255,4.255,0,0,1,4.24,4.24V21.73" fill="none" stroke="#fff" stroke-linecap="round" stroke-miterlimit="10" stroke-width="2"/>
    <g id="Group_403" data-name="Group 403">
      <circle id="Ellipse_68" data-name="Ellipse 68" cx="6.23" cy="6.23" r="6.23" transform="translate(32.17 33.79)" fill="none" stroke="#fff" stroke-linecap="round" stroke-linejoin="round" stroke-width="2"/>
      <path id="Path_719" data-name="Path 719" d="M36.09,40.18l1.67,1.67,3.06-3.06" fill="none" stroke="#fff" stroke-linecap="round" stroke-linejoin="round" stroke-width="2"/>
    </g>
    <line id="Line_20" data-name="Line 20" x2="8.49" transform="translate(7.13 29.3)" fill="none" stroke="#fff" stroke-linecap="round" stroke-miterlimit="10" stroke-width="2"/>
    <line id="Line_21" data-name="Line 21" x2="20.29" transform="translate(7.13 34.02)" fill="none" stroke="#fff" stroke-linecap="round" stroke-miterlimit="10" stroke-width="2"/>
    <path id="Path_720" data-name="Path 720" d="M22.38,18.36s1.26,6.22,8.81,6.69" fill="none" stroke="#fff" stroke-linecap="round" stroke-miterlimit="10" stroke-width="2"/>
  </g>
</svg>
