<svg id="Layer_1" data-name="Layer 1" xmlns="http://www.w3.org/2000/svg" width="57.673" height="52.333" viewBox="0 0 57.673 52.333">
  <g id="Group_402" data-name="Group 402">
    <path id="Path_707" data-name="Path 707" d="M18.53,15.18a4.994,4.994,0,0,0-4.75-5.2,4.994,4.994,0,0,0-4.75,5.2c0,2.87,2.13,6.7,4.75,6.7s4.75-3.83,4.75-6.7Z" fill="none" stroke="#fff" stroke-linecap="round" stroke-linejoin="round" stroke-width="2"/>
    <path id="Path_708" data-name="Path 708" d="M17.04,23.87l2.17.78a2.14,2.14,0,0,1,.22.1,5.039,5.039,0,0,1,2.23,2.15,3.592,3.592,0,0,1,.17.34,5.131,5.131,0,0,1,.41,1.81l.22,2.41" fill="none" stroke="#fff" stroke-linecap="round" stroke-linejoin="round" stroke-width="2"/>
    <path id="Path_709" data-name="Path 709" d="M5.1,31.46l.22-2.41a4.922,4.922,0,0,1,.41-1.81c.05-.11.11-.23.17-.34a5.144,5.144,0,0,1,2.23-2.15c.07-.03.14-.07.22-.1l2.17-.78" fill="none" stroke="#fff" stroke-linecap="round" stroke-linejoin="round" stroke-width="2"/>
    <path id="Path_710" data-name="Path 710" d="M27.43,31.46H54.38a1.967,1.967,0,0,0,1.97-1.97V2.97A1.967,1.967,0,0,0,54.38,1H16.99a1.967,1.967,0,0,0-1.97,1.97V4.46" fill="none" stroke="#fff" stroke-linecap="round" stroke-linejoin="round" stroke-width="2"/>
    <line id="Line_8" data-name="Line 8" x2="25.31" transform="translate(1 34.63)" fill="none" stroke="#fff" stroke-linecap="round" stroke-linejoin="round" stroke-width="2"/>
    <line id="Line_9" data-name="Line 9" y2="5.49" transform="translate(13.78 25.58)" fill="none" stroke="#fff" stroke-linecap="round" stroke-linejoin="round" stroke-width="2"/>
    <g id="Group_400" data-name="Group 400">
      <path id="Path_711" data-name="Path 711" d="M34.89,42.1a4.2,4.2,0,0,0-4-4.37,4.2,4.2,0,0,0-4,4.37c0,2.41,1.79,5.64,4,5.64S34.89,44.52,34.89,42.1Z" fill="none" stroke="#fff" stroke-linecap="round" stroke-linejoin="round" stroke-width="2"/>
      <line id="Line_10" data-name="Line 10" x1="3.28" y2="1.56" transform="translate(24.38 49.44)" fill="none" stroke="#fff" stroke-linecap="round" stroke-linejoin="round" stroke-width="2"/>
      <line id="Line_11" data-name="Line 11" x2="3.28" y2="1.56" transform="translate(34.13 49.44)" fill="none" stroke="#fff" stroke-linecap="round" stroke-linejoin="round" stroke-width="2"/>
    </g>
    <g id="Group_401" data-name="Group 401">
      <path id="Path_712" data-name="Path 712" d="M53.82,42.1a4.016,4.016,0,1,0-8,0c0,2.41,1.79,5.64,4,5.64S53.82,44.52,53.82,42.1Z" fill="none" stroke="#fff" stroke-linecap="round" stroke-linejoin="round" stroke-width="2"/>
      <line id="Line_12" data-name="Line 12" x1="3.28" y2="1.56" transform="translate(43.31 49.44)" fill="none" stroke="#fff" stroke-linecap="round" stroke-linejoin="round" stroke-width="2"/>
      <line id="Line_13" data-name="Line 13" x2="3.28" y2="1.56" transform="translate(53.06 49.44)" fill="none" stroke="#fff" stroke-linecap="round" stroke-linejoin="round" stroke-width="2"/>
    </g>
    <line id="Line_14" data-name="Line 14" y1="12.56" transform="translate(19.75 38.24)" fill="none" stroke="#fff" stroke-linecap="round" stroke-linejoin="round" stroke-width="2"/>
    <line id="Line_15" data-name="Line 15" y2="12.56" transform="translate(7.81 38.24)" fill="none" stroke="#fff" stroke-linecap="round" stroke-linejoin="round" stroke-width="2"/>
    <line id="Line_16" data-name="Line 16" x2="10.13" transform="translate(23.74 7.85)" fill="none" stroke="#fff" stroke-linecap="round" stroke-linejoin="round" stroke-width="2"/>
    <line id="Line_17" data-name="Line 17" x2="8.07" transform="translate(23.74 12.82)" fill="none" stroke="#fff" stroke-linecap="round" stroke-linejoin="round" stroke-width="2"/>
    <line id="Line_18" data-name="Line 18" x1="8.54" transform="translate(43.09 26.73)" fill="none" stroke="#fff" stroke-linecap="round" stroke-linejoin="round" stroke-width="2"/>
  </g>
</svg>
